<svg width="59" height="34" viewBox="0 0 59 34" fill="none" xmlns="http://www.w3.org/2000/svg">
<rect x="0.349609" width="58.65" height="34" rx="17" fill="#3456F3"/>
<path d="M16.5858 15.1016C16.5442 14.7318 16.3723 14.4453 16.0702 14.2422C15.7681 14.0365 15.3879 13.9336 14.9296 13.9336C14.6015 13.9336 14.3176 13.9857 14.078 14.0898C13.8384 14.1914 13.6522 14.332 13.5194 14.5117C13.3892 14.6888 13.3241 14.8906 13.3241 15.1172C13.3241 15.3073 13.3684 15.4714 13.4569 15.6094C13.5481 15.7474 13.6666 15.8633 13.8124 15.957C13.9608 16.0482 14.1197 16.125 14.289 16.1875C14.4582 16.2474 14.621 16.2969 14.7772 16.3359L15.5585 16.5391C15.8137 16.6016 16.0754 16.6862 16.3437 16.793C16.6119 16.8997 16.8606 17.0404 17.0897 17.2148C17.3189 17.3893 17.5038 17.6055 17.6444 17.8633C17.7877 18.1211 17.8593 18.4297 17.8593 18.7891C17.8593 19.2422 17.7421 19.6445 17.5077 19.9961C17.2759 20.3477 16.9387 20.625 16.496 20.8281C16.0559 21.0313 15.5233 21.1328 14.8983 21.1328C14.2994 21.1328 13.7812 21.0378 13.3437 20.8477C12.9062 20.6576 12.5637 20.388 12.3163 20.0391C12.0689 19.6875 11.9322 19.2708 11.9062 18.7891H13.1171C13.1405 19.0781 13.2343 19.319 13.3983 19.5117C13.565 19.7018 13.7772 19.8437 14.0351 19.9375C14.2955 20.0286 14.5806 20.0742 14.8905 20.0742C15.2317 20.0742 15.5351 20.0208 15.8007 19.9141C16.0689 19.8047 16.2798 19.6536 16.4335 19.4609C16.5871 19.2656 16.664 19.0378 16.664 18.7773C16.664 18.5404 16.5963 18.3464 16.4608 18.1953C16.328 18.0443 16.147 17.9193 15.9179 17.8203C15.6913 17.7214 15.4348 17.6341 15.1483 17.5586L14.203 17.3008C13.5624 17.1263 13.0546 16.8698 12.6796 16.5312C12.3072 16.1927 12.121 15.7448 12.121 15.1875C12.121 14.7266 12.246 14.3242 12.496 13.9805C12.746 13.6367 13.0845 13.3698 13.5116 13.1797C13.9387 12.987 14.4205 12.8906 14.9569 12.8906C15.4986 12.8906 15.9765 12.9857 16.3905 13.1758C16.8072 13.3659 17.1353 13.6276 17.3749 13.9609C17.6145 14.2917 17.7395 14.6719 17.7499 15.1016H16.5858ZM21.7938 21.1211C21.2027 21.1211 20.6936 20.9948 20.2665 20.7422C19.842 20.487 19.5139 20.1289 19.2821 19.668C19.053 19.2044 18.9384 18.6615 18.9384 18.0391C18.9384 17.4245 19.053 16.8828 19.2821 16.4141C19.5139 15.9453 19.8368 15.5794 20.2509 15.3164C20.6675 15.0534 21.1545 14.9219 21.7118 14.9219C22.0504 14.9219 22.3785 14.9779 22.6962 15.0898C23.0139 15.2018 23.2991 15.3776 23.5517 15.6172C23.8043 15.8568 24.0035 16.168 24.1493 16.5508C24.2951 16.931 24.3681 17.3932 24.3681 17.9375V18.3516H19.5985V17.4766H23.2235C23.2235 17.1693 23.161 16.8971 23.036 16.6602C22.911 16.4206 22.7353 16.2318 22.5087 16.0937C22.2847 15.9557 22.0217 15.8867 21.7196 15.8867C21.3915 15.8867 21.105 15.9674 20.8603 16.1289C20.6181 16.2878 20.4306 16.4961 20.2978 16.7539C20.1675 17.0091 20.1024 17.2865 20.1024 17.5859V18.2695C20.1024 18.6706 20.1728 19.0117 20.3134 19.293C20.4566 19.5742 20.6558 19.7891 20.911 19.9375C21.1662 20.0833 21.4644 20.1562 21.8056 20.1562C22.0269 20.1562 22.2287 20.125 22.411 20.0625C22.5933 19.9974 22.7509 19.901 22.8837 19.7734C23.0165 19.6458 23.1181 19.4883 23.1884 19.3008L24.2938 19.5C24.2053 19.8255 24.0465 20.1107 23.8173 20.3555C23.5907 20.5977 23.3056 20.7865 22.9618 20.9219C22.6207 21.0547 22.2313 21.1211 21.7938 21.1211ZM27.4101 21.1328C27.0298 21.1328 26.6861 21.0625 26.3788 20.9219C26.0715 20.7786 25.828 20.5716 25.6483 20.3008C25.4713 20.0299 25.3827 19.6979 25.3827 19.3047C25.3827 18.9661 25.4478 18.6875 25.578 18.4687C25.7082 18.25 25.884 18.0768 26.1054 17.9492C26.3267 17.8216 26.5741 17.7253 26.8476 17.6602C27.121 17.5951 27.3996 17.5456 27.6835 17.5117C28.0429 17.4701 28.3345 17.4362 28.5585 17.4102C28.7825 17.3815 28.9452 17.3359 29.0468 17.2734C29.1483 17.2109 29.1991 17.1094 29.1991 16.9687V16.9414C29.1991 16.6003 29.1028 16.3359 28.9101 16.1484C28.72 15.9609 28.4361 15.8672 28.0585 15.8672C27.6653 15.8672 27.3554 15.9544 27.1288 16.1289C26.9048 16.3008 26.7499 16.4922 26.664 16.7031L25.5663 16.4531C25.6965 16.0885 25.8866 15.7943 26.1366 15.5703C26.3892 15.3437 26.6796 15.1797 27.0077 15.0781C27.3358 14.974 27.6809 14.9219 28.0429 14.9219C28.2825 14.9219 28.5364 14.9505 28.8046 15.0078C29.0754 15.0625 29.328 15.1641 29.5624 15.3125C29.7994 15.4609 29.9934 15.6732 30.1444 15.9492C30.2955 16.2227 30.371 16.5781 30.371 17.0156V21H29.2304V20.1797H29.1835C29.108 20.3307 28.9947 20.4792 28.8437 20.625C28.6926 20.7708 28.4986 20.8919 28.2616 20.9883C28.0246 21.0846 27.7408 21.1328 27.4101 21.1328ZM27.664 20.1953C27.9869 20.1953 28.2629 20.1315 28.4921 20.0039C28.7239 19.8763 28.8996 19.7096 29.0194 19.5039C29.1418 19.2956 29.203 19.0729 29.203 18.8359V18.0625C29.1614 18.1042 29.0806 18.1432 28.9608 18.1797C28.8437 18.2135 28.7095 18.2435 28.5585 18.2695C28.4075 18.293 28.2603 18.3151 28.1171 18.3359C27.9739 18.3542 27.8541 18.3698 27.7577 18.3828C27.5312 18.4115 27.3241 18.4596 27.1366 18.5273C26.9517 18.5951 26.8033 18.6927 26.6913 18.8203C26.5819 18.9453 26.5272 19.112 26.5272 19.3203C26.5272 19.6094 26.634 19.8281 26.8476 19.9766C27.0611 20.1224 27.3332 20.1953 27.664 20.1953ZM31.9267 21V15H33.0556V15.9531H33.1181C33.2274 15.6302 33.4201 15.3763 33.6962 15.1914C33.9748 15.0039 34.2899 14.9102 34.6415 14.9102C34.7144 14.9102 34.8004 14.9128 34.8993 14.918C35.0009 14.9232 35.0803 14.9297 35.1376 14.9375V16.0547C35.0907 16.0417 35.0074 16.0273 34.8876 16.0117C34.7678 15.9935 34.648 15.9844 34.5282 15.9844C34.2522 15.9844 34.0061 16.043 33.7899 16.1602C33.5764 16.2747 33.4071 16.4349 33.2821 16.6406C33.1571 16.8437 33.0946 17.0755 33.0946 17.3359V21H31.9267ZM38.4608 21.1211C37.8801 21.1211 37.3801 20.9896 36.9608 20.7266C36.5442 20.4609 36.2239 20.0951 35.9999 19.6289C35.7759 19.1628 35.664 18.6289 35.664 18.0273C35.664 17.418 35.7785 16.8802 36.0077 16.4141C36.2369 15.9453 36.5598 15.5794 36.9765 15.3164C37.3931 15.0534 37.884 14.9219 38.4491 14.9219C38.9048 14.9219 39.3111 15.0065 39.6679 15.1758C40.0246 15.3424 40.3124 15.5768 40.5312 15.8789C40.7525 16.181 40.884 16.5339 40.9257 16.9375H39.789C39.7265 16.6562 39.5832 16.4141 39.3593 16.2109C39.1379 16.0078 38.841 15.9062 38.4687 15.9062C38.1431 15.9062 37.858 15.9922 37.6132 16.1641C37.371 16.3333 37.1822 16.5755 37.0468 16.8906C36.9114 17.2031 36.8437 17.5729 36.8437 18C36.8437 18.4375 36.9101 18.8151 37.0429 19.1328C37.1757 19.4505 37.3632 19.6966 37.6054 19.8711C37.8502 20.0456 38.1379 20.1328 38.4687 20.1328C38.69 20.1328 38.8905 20.0924 39.0702 20.0117C39.2525 19.9284 39.4048 19.8099 39.5272 19.6562C39.6522 19.5026 39.7395 19.3177 39.789 19.1016H40.9257C40.884 19.4896 40.7577 19.8359 40.5468 20.1406C40.3358 20.4453 40.0533 20.6849 39.6991 20.8594C39.3476 21.0339 38.9348 21.1211 38.4608 21.1211ZM43.3427 17.4375V21H42.1747V13H43.327V15.9766H43.4013C43.5419 15.6536 43.7567 15.3971 44.0458 15.207C44.3349 15.0169 44.7125 14.9219 45.1786 14.9219C45.5901 14.9219 45.9494 15.0065 46.2567 15.1758C46.5666 15.3451 46.8062 15.5977 46.9755 15.9336C47.1474 16.2669 47.2333 16.6836 47.2333 17.1836V21H46.0653V17.3242C46.0653 16.8841 45.952 16.543 45.7255 16.3008C45.4989 16.056 45.1838 15.9336 44.7802 15.9336C44.5041 15.9336 44.2567 15.9922 44.038 16.1094C43.8218 16.2266 43.6513 16.3984 43.5263 16.625C43.4039 16.849 43.3427 17.1198 43.3427 17.4375Z" fill="white"/>
</svg>
