<svg width="100" height="30" viewBox="0 0 100 30" fill="none" xmlns="http://www.w3.org/2000/svg">
<path d="M1.97869 20H0.348011L4.01207 9.81818H5.78693L9.45099 20H7.82031L4.94176 11.6676H4.86222L1.97869 20ZM2.25213 16.0128H7.5419V17.3054H2.25213V16.0128ZM13.8956 20.1541C13.1565 20.1541 12.5201 19.9867 11.9865 19.652C11.4562 19.3139 11.0485 18.8482 10.7635 18.255C10.4785 17.6617 10.3359 16.9822 10.3359 16.2166C10.3359 15.4411 10.4818 14.7566 10.7734 14.1634C11.0651 13.5668 11.4761 13.1011 12.0064 12.7663C12.5367 12.4316 13.1615 12.2642 13.8807 12.2642C14.4607 12.2642 14.9777 12.3719 15.4318 12.5874C15.8859 12.7995 16.2521 13.0978 16.5305 13.4822C16.8123 13.8667 16.9796 14.3158 17.0327 14.8295H15.5859C15.5064 14.4716 15.3241 14.1634 15.0391 13.9048C14.7573 13.6463 14.3795 13.517 13.9055 13.517C13.4912 13.517 13.1283 13.6264 12.8168 13.8452C12.5085 14.0606 12.2682 14.3688 12.0959 14.7699C11.9235 15.1676 11.8374 15.6383 11.8374 16.1818C11.8374 16.7386 11.9219 17.2192 12.0909 17.6236C12.2599 18.0279 12.4986 18.3411 12.8068 18.5632C13.1184 18.7853 13.4846 18.8963 13.9055 18.8963C14.1873 18.8963 14.4425 18.8449 14.6712 18.7422C14.9032 18.6361 15.0971 18.4853 15.2528 18.2898C15.4119 18.0942 15.523 17.8589 15.5859 17.5838H17.0327C16.9796 18.0777 16.8189 18.5185 16.5504 18.9062C16.282 19.294 15.9223 19.599 15.4716 19.821C15.0241 20.0431 14.4988 20.1541 13.8956 20.1541ZM21.839 20.1541C21.0998 20.1541 20.4635 19.9867 19.9299 19.652C19.3996 19.3139 18.9919 18.8482 18.7069 18.255C18.4218 17.6617 18.2793 16.9822 18.2793 16.2166C18.2793 15.4411 18.4251 14.7566 18.7168 14.1634C19.0085 13.5668 19.4194 13.1011 19.9498 12.7663C20.4801 12.4316 21.1048 12.2642 21.824 12.2642C22.4041 12.2642 22.9211 12.3719 23.3752 12.5874C23.8292 12.7995 24.1955 13.0978 24.4739 13.4822C24.7556 13.8667 24.923 14.3158 24.976 14.8295H23.5293C23.4498 14.4716 23.2675 14.1634 22.9824 13.9048C22.7007 13.6463 22.3229 13.517 21.8489 13.517C21.4346 13.517 21.0717 13.6264 20.7601 13.8452C20.4519 14.0606 20.2116 14.3688 20.0392 14.7699C19.8669 15.1676 19.7807 15.6383 19.7807 16.1818C19.7807 16.7386 19.8652 17.2192 20.0343 17.6236C20.2033 18.0279 20.4419 18.3411 20.7502 18.5632C21.0617 18.7853 21.428 18.8963 21.8489 18.8963C22.1306 18.8963 22.3858 18.8449 22.6145 18.7422C22.8465 18.6361 23.0404 18.4853 23.1962 18.2898C23.3553 18.0942 23.4663 17.8589 23.5293 17.5838H24.976C24.923 18.0777 24.7623 18.5185 24.4938 18.9062C24.2253 19.294 23.8657 19.599 23.415 19.821C22.9675 20.0431 22.4422 20.1541 21.839 20.1541ZM29.7823 20.1541C29.0664 20.1541 28.4416 19.9901 27.908 19.6619C27.3744 19.3338 26.9601 18.8748 26.6651 18.2848C26.3701 17.6948 26.2227 17.0054 26.2227 16.2166C26.2227 15.4245 26.3701 14.7318 26.6651 14.1385C26.9601 13.5452 27.3744 13.0845 27.908 12.7564C28.4416 12.4283 29.0664 12.2642 29.7823 12.2642C30.4982 12.2642 31.123 12.4283 31.6566 12.7564C32.1902 13.0845 32.6045 13.5452 32.8995 14.1385C33.1945 14.7318 33.342 15.4245 33.342 16.2166C33.342 17.0054 33.1945 17.6948 32.8995 18.2848C32.6045 18.8748 32.1902 19.3338 31.6566 19.6619C31.123 19.9901 30.4982 20.1541 29.7823 20.1541ZM29.7873 18.9062C30.2513 18.9062 30.6358 18.7836 30.9407 18.5384C31.2456 18.2931 31.471 17.9666 31.6168 17.5589C31.766 17.1513 31.8406 16.7022 31.8406 16.2116C31.8406 15.7244 31.766 15.277 31.6168 14.8693C31.471 14.4583 31.2456 14.1286 30.9407 13.88C30.6358 13.6314 30.2513 13.5071 29.7873 13.5071C29.32 13.5071 28.9322 13.6314 28.6239 13.88C28.319 14.1286 28.092 14.4583 27.9428 14.8693C27.797 15.277 27.7241 15.7244 27.7241 16.2116C27.7241 16.7022 27.797 17.1513 27.9428 17.5589C28.092 17.9666 28.319 18.2931 28.6239 18.5384C28.9322 18.7836 29.32 18.9062 29.7873 18.9062ZM39.8386 16.8331V12.3636H41.3301V20H39.8684V18.6776H39.7889C39.6132 19.0852 39.3315 19.425 38.9437 19.6967C38.5592 19.9652 38.0803 20.0994 37.5069 20.0994C37.0164 20.0994 36.5822 19.9917 36.2044 19.7763C35.8298 19.5575 35.5349 19.2344 35.3194 18.8068C35.1073 18.3793 35.0012 17.8506 35.0012 17.2209V12.3636H36.4877V17.0419C36.4877 17.5623 36.6319 17.9766 36.9203 18.2848C37.2086 18.593 37.5832 18.7472 38.0439 18.7472C38.3223 18.7472 38.599 18.6776 38.8741 18.5384C39.1525 18.3991 39.3829 18.1887 39.5652 17.907C39.7508 17.6252 39.8419 17.2673 39.8386 16.8331ZM44.8139 15.4659V20H43.3274V12.3636H44.7543V13.6065H44.8487C45.0244 13.2022 45.2995 12.8774 45.674 12.6321C46.0518 12.3868 46.5275 12.2642 47.1009 12.2642C47.6212 12.2642 48.0769 12.3736 48.468 12.5923C48.8591 12.8078 49.1624 13.1293 49.3778 13.5568C49.5933 13.9844 49.701 14.513 49.701 15.1428V20H48.2145V15.3217C48.2145 14.7682 48.0703 14.3357 47.782 14.0241C47.4936 13.7093 47.0975 13.5518 46.5938 13.5518C46.2491 13.5518 45.9425 13.6264 45.674 13.7756C45.4089 13.9247 45.1984 14.1435 45.0426 14.4318C44.8902 14.7169 44.8139 15.0616 44.8139 15.4659ZM55.2592 12.3636V13.5568H51.0881V12.3636H55.2592ZM52.2067 10.5341H53.6932V17.7578C53.6932 18.0462 53.7363 18.2633 53.8224 18.4091C53.9086 18.5516 54.0196 18.6494 54.1555 18.7024C54.2947 18.7521 54.4455 18.777 54.608 18.777C54.7273 18.777 54.8317 18.7687 54.9212 18.7521C55.0107 18.7356 55.0803 18.7223 55.13 18.7124L55.3984 19.9403C55.3123 19.9735 55.1896 20.0066 55.0305 20.0398C54.8714 20.0762 54.6726 20.0961 54.4339 20.0994C54.0429 20.1061 53.6783 20.0365 53.3402 19.8906C53.0021 19.7448 52.7287 19.5194 52.5199 19.2145C52.3111 18.9096 52.2067 18.5268 52.2067 18.0661V10.5341Z" fill="white"/>
<rect x="74" width="26" height="30" rx="4" fill="#313131"/>
<path fill-rule="evenodd" clip-rule="evenodd" d="M89.5 12C89.5 13.3807 88.3807 14.5 87 14.5C85.6193 14.5 84.5 13.3807 84.5 12C84.5 10.6193 85.6193 9.5 87 9.5C88.3807 9.5 89.5 10.6193 89.5 12ZM91 12C91 14.2091 89.2091 16 87 16C84.7909 16 83 14.2091 83 12C83 9.79086 84.7909 8 87 8C89.2091 8 91 9.79086 91 12ZM85 17.25C82.9289 17.25 81.25 18.9289 81.25 21V22H82.75V21C82.75 19.7574 83.7574 18.75 85 18.75H89C90.2426 18.75 91.25 19.7574 91.25 21V22H92.75V21C92.75 18.9289 91.0711 17.25 89 17.25H85Z" fill="white"/>
</svg>
